<svg xmlns="http://www.w3.org/2000/svg" xmlns:xlink="http://www.w3.org/1999/xlink" id="ICD-10_OPCS-4_" data-name="ICD-10 &amp; OPCS-4 " width="382.175" height="429.302" viewBox="0 0 382.175 429.302">
	<defs>
		<clipPath id="clip-path">
			<rect id="Rectangle_234" data-name="Rectangle 234" width="382.175" height="429.302" fill="#263238" />
		</clipPath>
		<clipPath id="clip-path-2">
			<rect id="Rectangle_235" data-name="Rectangle 235" width="382.175" height="429.302" fill="none" />
		</clipPath>
		<clipPath id="clip-path-4">
			<rect id="Rectangle_237" data-name="Rectangle 237" width="382.175" height="429.302" fill="#20c679" />
		</clipPath>
		<clipPath id="clip-path-5">
			<path id="Path_3752" data-name="Path 3752" d="M159.838,88.341l-5.9,15.763a8.1,8.1,0,0,0,4.734,10.393l4.094,1.531a8.1,8.1,0,0,0,10.393-4.734l5.9-15.762a8.1,8.1,0,0,0-4.734-10.393l-4.094-1.532a8,8,0,0,0-2.809-.51,8.106,8.106,0,0,0-7.584,5.243" transform="translate(-153.431 -83.098)" fill="none" />
		</clipPath>
	</defs>
	<g id="Group_2711" data-name="Group 2711">
		<g id="Group_2710" data-name="Group 2710" clip-path="url(#clip-path)">
			<path id="Path_1127" data-name="Path 1127" d="M146.549.356S123.634-3.128,110.524,11.7C98.649,25.124,99.579,44.073,99.579,44.073S82.513,32.767,68.06,47.4s-3.853,29.8-3.853,29.8S35.5,84.365,49.759,101.329s117.971,27.193,128.811,9.593-6.289-41.608-6.289-41.608S200.314,9.868,146.549.356" transform="translate(-16.497 0)" fill="#253137" />
			<path id="Path_1128" data-name="Path 1128" d="M81.367,360.715,27.747,523.236c-.984,2.982-.122,6.064,1.842,6.587,2.88.768,6.142-1.842,7.7-6.158L93.6,367.48Z" transform="translate(-9.851 -129.974)" fill="#fff" />
			<path id="Path_1129" data-name="Path 1129" d="M29.387,530.106c2.989.8,6.335-1.888,7.956-6.384L93.651,367.536l-.349-.221L36.995,523.5c-1.508,4.185-4.638,6.68-7.441,5.933a3.057,3.057,0,0,1-1.982-2.508,6.993,6.993,0,0,1,.237-3.649l53.62-162.521-.359-.191L27.449,523.088a8.057,8.057,0,0,0-.277,4.205,3.428,3.428,0,0,0,2.215,2.813" transform="translate(-9.732 -129.92)" fill="#060633" />
			<path id="Path_1130" data-name="Path 1130" d="M201.236,368.806,231.425,537.26c.554,3.092,2.779,5.392,4.755,4.917,2.9-.7,4.526-4.543,3.841-9.079L215.21,368.936Z" transform="translate(-72.51 -132.889)" fill="#fff" />
			<path id="Path_1131" data-name="Path 1131" d="M236.152,542.512c3.008-.722,4.673-4.675,3.959-9.4L215.3,368.949l-.412-.029L239.7,533.083c.665,4.4-.9,8.082-3.722,8.758a3.056,3.056,0,0,1-2.937-1.261,6.993,6.993,0,0,1-1.528-3.322L201.324,368.8l-.406,0,30.19,168.455a8.061,8.061,0,0,0,1.758,3.83,3.428,3.428,0,0,0,3.287,1.42" transform="translate(-72.396 -132.888)" fill="#060633" />
			<path id="Path_1132" data-name="Path 1132" d="M153.847,257.916c-.28-3.013-30.684-87.829-98.307-83.569s-60.014,54.2-46.4,103.8c11.728,42.715,46.73,115.621,159.257,97.206s73.324-100.558,40.706-104.474-54.268-2.272-55.261-12.962" transform="translate(0 -62.766)" fill="#d8dcdf" />
			<path id="Path_1133" data-name="Path 1133" d="M156.469,371.884c-.277,0-.553-.005-.833-.015-10.955-.383-14.253-9.431-17.745-19.01-4.231-11.607-9.026-24.761-28.675-24.8h-.194c-19.856,0-25.967,6.346-31.361,11.947-4.272,4.436-7.968,8.26-17.508,7.894-3.721-.146-6.376-1.224-8.117-3.3-3.458-4.118-2.461-11.471-1.583-17.958.973-7.181,1.814-13.383-3.046-14.073-11.528-1.62-24.363,31.833-24.49,32.172l-.4-.152a138.656,138.656,0,0,1,7.931-16.815c6.286-11.083,12.009-16.344,17.02-15.63,5.281.75,4.372,7.456,3.41,14.555-.867,6.4-1.85,13.651,1.485,17.624,1.659,1.976,4.213,3,7.805,3.146,9.346.357,12.982-3.4,17.183-7.763,5.471-5.681,11.665-12.114,31.864-12.078,19.948.042,24.8,13.347,29.078,25.084,3.441,9.44,6.692,18.357,17.357,18.729,11.671.406,20.268-7.974,28.6-16.08,8.791-8.555,17.881-17.4,30.551-15.881l-.051.426c-12.465-1.494-21.482,7.278-30.2,15.762-8.194,7.975-16.664,16.215-28.077,16.216" transform="translate(-8.113 -112.45)" fill="#fff" />
			<path id="Path_1134" data-name="Path 1134" d="M341.372,420.915a88.184,88.184,0,0,0-9.076-11,50.139,50.139,0,0,1-10.222,2.462c-8.046,1.059-16.433.108-22.435-2.55-4.367-1.932-6.87-4.507-6.867-7.065,0-1.592.994-3.925,5.715-6,8.678-3.819,18.913-.885,29.6,8.486,1.55,1.359,3.006,2.764,4.349,4.148a47.614,47.614,0,0,0,15.993-9.648l.289.317a48.344,48.344,0,0,1-15.945,9.68,89.068,89.068,0,0,1,8.956,10.937Zm-35.127-25.363a18.635,18.635,0,0,0-7.584,1.6c-3.57,1.571-5.458,3.511-5.46,5.611,0,2.38,2.408,4.812,6.612,6.672,6.839,3.026,19.452,4.55,32.141.129-6.616-6.751-15.991-14.01-25.709-14.01" transform="translate(-105.493 -142.375)" fill="#fff" />
			<path id="Path_1135" data-name="Path 1135" d="M153.958,468.765c-.024-.084-2.552-8.477-15.628-17.948-12.08-8.749-35.882-20.23-80.674-25.235l.047-.426c24.8,2.77,58.967,9.417,80.926,25.348,13.168,9.554,15.717,18.058,15.742,18.142Z" transform="translate(-20.775 -153.194)" fill="#fff" />
			<path id="Path_1136" data-name="Path 1136" d="M14.385,281.96l-.412-.122a279.451,279.451,0,0,1,14.511-37.314c1.307-2.706,2.733-5.5,4.264-8.282a27.1,27.1,0,0,1-5.518-1.231c-4.562-1.541-7.214-3.62-8.11-6.355-1.606-4.9,2.713-11.057,7.285-17.578,6.525-9.307,13.271-18.932,3.991-26.133l.263-.338c9.6,7.452,2.428,17.688-3.9,26.718-4.508,6.431-8.767,12.506-7.228,17.2.851,2.6,3.416,4.586,7.841,6.082a26.843,26.843,0,0,0,5.6,1.233c8.127-14.668,19.194-28.982,31.551-29.346,5.288-.166,8.684,1.048,9.815,3.484,1.213,2.613-.278,6.55-4.091,10.8-6.993,7.8-22.581,16.967-36.984,15.522C21.79,257.154,14.51,281.534,14.385,281.96m19.1-46.069c14.2,1.339,29.538-7.706,36.439-15.4,3.693-4.118,5.158-7.885,4.021-10.335-1.052-2.268-4.3-3.379-9.412-3.236-11.822.35-22.565,13.657-31.047,28.971" transform="translate(-5.035 -66.518)" fill="#fff" />
			<path id="Path_1137" data-name="Path 1137" d="M163.964,255.1l-.378-.2c4.677-8.692,7.605-16.475,8.742-23.218-12.359-7.288-19.132-13.285-20.15-17.848a4.442,4.442,0,0,1,2.41-5.075c3.387-1.874,9.445-1.286,13.723,2.941,2.408,2.38,5.225,6.9,4.971,14.919a38.036,38.036,0,0,1-.478,4.826c11.645,6.848,24.006,12.344,24.234,12.445l-.173.392c-.1-.046-10.617-4.7-21.315-10.743q-1.457-.821-2.825-1.624c-1.164,6.754-4.1,14.526-8.759,23.189m-5.007-46.934a8.653,8.653,0,0,0-4.162.965,3.99,3.99,0,0,0-2.2,4.606c1.158,5.192,10.187,11.777,19.809,17.469a37.277,37.277,0,0,0,.446-4.605c.249-7.864-2.5-12.28-4.844-14.6a13.067,13.067,0,0,0-9.051-3.835" transform="translate(-54.788 -74.853)" fill="#fff" />
			<path id="Path_1138" data-name="Path 1138" d="M194.5,121.407c15.017,4.92,32.632,16.451,41.2,37.717,6.248,15.505,16.538,43.87,19.957,45.414,4.789,2.162,50.7,9.339,50.7,9.339l-11.034,15.732s-55.578,14.886-67.332,1.863c-12.77-14.147-16.717-52.381-16.717-52.381Z" transform="translate(-70.082 -43.746)" fill="#bed9ea" />
		</g>
	</g>
	<g id="Group_2715" data-name="Group 2715">
		<g id="Group_2714" data-name="Group 2714" clip-path="url(#clip-path-2)">
			<path id="Path_1756" data-name="Path 1756" d="M261.466,327.524H97.373a7.277,7.277,0,0,1-7.276-7.276v-.462a7.277,7.277,0,0,1,7.276-7.276H261.466a7.277,7.277,0,0,1,7.276,7.276v.462a7.277,7.277,0,0,1-7.276,7.276" transform="translate(-32.464 -112.605)" fill="#e07b48" />
			<path id="Path_1757" data-name="Path 1757" d="M376.9,584.6l-.171,11.2c.564-.021,1.13-.032,1.7-.024,14.384.208,25.9,9.5,25.733,20.753l-27.746-.4-24.342-.352c-4.952-13.606-2.733-33.264-2.733-33.264Z" transform="translate(-125.697 -209.892)" fill="#31313a" />
			<path id="Path_1758" data-name="Path 1758" d="M376.073,612.012a.164.164,0,0,0,.147-.091,14.767,14.767,0,0,1,11.773-8.572.164.164,0,0,0-.012-.328,15.092,15.092,0,0,0-12.055,8.755.164.164,0,0,0,.075.219.156.156,0,0,0,.073.017" transform="translate(-135.449 -217.283)" fill="#fff" />
			<path id="Path_1759" data-name="Path 1759" d="M322.58,595.118l-.171,11.2c.564-.021,1.131-.032,1.7-.024,14.384.208,25.9,9.5,25.733,20.753l-27.746-.4-24.342-.353c-4.953-13.606-2.733-33.264-2.733-33.264Z" transform="translate(-106.125 -213.681)" fill="#484854" />
			<path id="Path_1760" data-name="Path 1760" d="M321.756,622.528a.164.164,0,0,0,.147-.091,14.767,14.767,0,0,1,11.773-8.572.164.164,0,1,0-.012-.328,15.092,15.092,0,0,0-12.055,8.755.163.163,0,0,0,.074.219.159.159,0,0,0,.074.017" transform="translate(-115.877 -221.072)" fill="#fff" />
			<path id="Path_1761" data-name="Path 1761" d="M301.035,367.412c15.28,72.76.807,123.541.807,123.541s-8.167,9.027-23.525,8.577c-15.055-.441-20.381-8.577-20.381-8.577s-11.369-96.574-18.175-97.505c-83.732-11.462-106.582-34.022-102.06-66.991,3.622-26.414,151.875-13.611,163.334,40.955" transform="translate(-49.422 -112.857)" fill="#086cce" />
		</g>
	</g>
	<g id="Group_2719" data-name="Group 2719">
		<g id="Group_2718" data-name="Group 2718" clip-path="url(#clip-path-2)">
			<path id="Path_2379" data-name="Path 2379" d="M262.149,376.9c12.623,52.947-1.976,123.864-1.976,123.864s-8.167,9.027-23.525,8.577c-15.055-.441-20.381-8.577-20.381-8.577s2.85-102.832-5.877-103.194C105.322,393.2,91.51,369.234,96.032,336.265c3.622-26.414,154.591-7.714,166.118,40.632" transform="translate(-34.338 -116.833)" fill="#0078ee" />
			<path id="Path_2380" data-name="Path 2380" d="M87.624,280.446s102.7-17.894,102.7-41.333c0,0-9.937-107.64-33.923-117.114a51.482,51.482,0,0,0-22.16-5.584c-28.713-.587-49.543,4.994-59.638,35.15,0,0-4.835,47.193,13.025,128.881" transform="translate(-26.665 -41.933)" fill="#31313a" />
			<path id="Path_2381" data-name="Path 2381" d="M171.058,115.413s21.429,13.122,28.728,65.631c4.135,29.749,7.772,56.183,7.772,56.183l23.52,2.1S213.743,136.026,197.6,125.11c-11.9-8.048-26.547-9.7-26.547-9.7" transform="translate(-61.636 -41.586)" fill="#bed9ea" />
			<path id="Path_2382" data-name="Path 2382" d="M179.268,120.78s18.475,20.172,25.547,76.7c0,0,4.759-21.562,4.2-28.926l-5.162-3.768,3.6-4.656s-10.877-35.819-21.132-41.776-7.061,2.422-7.061,2.422" transform="translate(-64.425 -41.877)" fill="#83aac6" />
			<path id="Path_2383" data-name="Path 2383" d="M202.89,303.635S205.8,351.02,95.882,347.578c-1.948-.061-5.44-5.834-5.708-7.764l-13.581-48.7Z" transform="translate(-27.598 -104.897)" fill="#31313a" />
			<path id="Path_2384" data-name="Path 2384" d="M172.987,358.225,136.722,550.888c-.666,3.535,1.154,6.845,3.89,7.074,4.012.336,7.8-3.2,8.939-8.338L190.781,363.6Z" transform="translate(-49.215 -129.077)" fill="#fff" />
			<path id="Path_2385" data-name="Path 2385" d="M140.422,558.314c4.164.349,8.047-3.285,9.234-8.64l41.23-186.028-.513-.185L149.143,549.49c-1.1,4.984-4.74,8.364-8.645,8.038a3.975,3.975,0,0,1-3.191-2.458,6.808,6.808,0,0,1-.477-4.149L173.1,358.257l-.52-.148L136.311,550.772a7.85,7.85,0,0,0,.544,4.782,4.456,4.456,0,0,0,3.568,2.76" transform="translate(-49.063 -129.035)" fill="#060633" />
			<path id="Path_2386" data-name="Path 2386" d="M530.1,357.31l36.264,193.227c.666,3.546-1.154,6.865-3.89,7.095-4.012.337-7.8-3.206-8.939-8.362L512.3,362.7Z" transform="translate(-184.595 -128.747)" fill="#fff" />
			<path id="Path_2387" data-name="Path 2387" d="M562.365,557.984c-4.164.35-8.047-3.294-9.234-8.665L511.9,362.747l.513-.185,41.23,186.572c1.1,5,4.74,8.389,8.645,8.061a3.976,3.976,0,0,0,3.191-2.465,6.846,6.846,0,0,0,.477-4.161L529.693,357.342l.52-.149,36.265,193.228a7.894,7.894,0,0,1-.544,4.8,4.457,4.457,0,0,1-3.568,2.767" transform="translate(-184.45 -128.705)" fill="#060633" />
			<path id="Path_2388" data-name="Path 2388" d="M124.986,116.472s17.388,147.169,30.483,150.365,51.606,8.735,51.606,8.735-7.235,45.17-33.948,51.9c0,0-81.422-1.842-93.426-58.151S74,151.6,74,151.6Z" transform="translate(-26.069 -41.968)" fill="#bed9ea" />
		</g>
	</g>
	<g id="Group_2723" data-name="Group 2723">
		<g id="Group_2722" data-name="Group 2722" clip-path="url(#clip-path-4)">
			<path id="Path_3566" data-name="Path 3566" d="M147.559,322.812v13.743c0,4.143,9.751,7.977,26.341,11.114,6.023,1.141,12.947,2.188,20.63,3.123,25.476,3.109,59.32,5,96.457,5,40.025,0,76.22-2.2,102.236-5.744.013,0,.029,0,.042-.007,7.84-1.068,14.754-2.261,20.569-3.552,13.063-2.9,20.582-6.3,20.582-9.936V322.812H391.368c-8.767-1.151-18.633-2.154-29.364-2.979-20.935-1.6-45.177-2.518-71.017-2.518-39.079,0-74.509,2.1-100.377,5.5Z" transform="translate(-53.169 -114.336)" fill="#fff" />
			<path id="Path_3567" data-name="Path 3567" d="M194.329,350.95c-7.676-.934-14.623-1.986-20.646-3.125-17.649-3.337-26.6-7.2-26.6-11.475V322.244l43.322,0c26.971-3.546,62.631-5.5,100.41-5.5,24.928,0,49.492.871,71.036,2.519,10.688.821,20.573,1.824,29.345,2.978h43.351V336.35c0,3.763-7.008,7.225-20.829,10.294-5.8,1.289-12.726,2.485-20.557,3.549l-.075.015c-27.194,3.706-63.514,5.746-102.271,5.746-35.778,0-70.045-1.776-96.487-5M391.164,322.97c-8.8-1.155-18.671-2.158-29.351-2.978-21.532-1.647-46.082-2.517-71-2.517-37.757,0-73.394,1.952-100.377,5.5H147.691V336.35c0,2.174,3.389,6.464,26.085,10.755,6.013,1.138,12.948,2.188,20.614,3.12,26.422,3.225,60.668,5,96.426,5,38.734,0,75.031-2.039,102.168-5.735l.077-.014c7.849-1.07,14.762-2.264,20.547-3.549,17.692-3.927,20.333-7.687,20.333-9.578V322.972Z" transform="translate(-52.998 -114.131)" fill="#060633" />
			<path id="Path_3568" data-name="Path 3568" d="M147.559,315.072c0,5.15,15.066,9.823,39.6,13.276h0q4.94.7,10.377,1.322,4.916.567,10.2,1.072c23.473,2.247,52.2,3.569,83.24,3.569,15.613,0,30.644-.333,44.711-.955.051,0,.1,0,.151-.006,57.243-2.525,98.567-9.754,98.567-18.278,0-7.8-34.567-14.509-84.266-17.536-8.445-.512-17.324-.917-26.547-1.206-10.477-.326-21.4-.5-32.616-.5-36.545,0-69.9,1.835-95.235,4.854-.367.045-.733.089-1.1.13a.019.019,0,0,1-.013,0c-28.92,3.518-47.084,8.6-47.084,14.251" transform="translate(-53.169 -106.595)" fill="#20c679" />
			<path id="Path_3569" data-name="Path 3569" d="M207.552,330.9c-3.514-.336-6.949-.7-10.209-1.073-3.669-.424-7.162-.87-10.386-1.324-18.189-2.56-39.872-7-39.872-13.637,0-7.687,29.555-12.444,47.284-14.6l.087-.014c.363-.042.729-.086,1.1-.13,26.268-3.132,60.1-4.856,95.265-4.856,11.04,0,22.016.168,32.624.5,9.124.286,18.059.691,26.555,1.206,40.876,2.49,84.554,8.5,84.554,17.9,0,10.541-53.254,16.63-98.853,18.641l-.157.008c-14.343.634-29.39.955-44.722.955-30.063,0-58.855-1.235-83.264-3.57m-11.94-30.056-1.027.122-.083.012c-29.311,3.566-46.811,8.758-46.811,13.889,0,4.689,14.338,9.395,39.339,12.913,3.218.454,6.707.9,10.372,1.322,3.256.376,6.688.736,10.2,1.071,24.393,2.335,53.168,3.569,83.215,3.569,15.324,0,30.364-.322,44.694-.954l.157-.008c57.863-2.553,98.274-9.919,98.274-17.914,0-7.212-33.748-14.113-83.977-17.173-8.491-.514-17.42-.92-26.539-1.205-10.6-.331-21.574-.5-32.608-.5-35.146,0-68.957,1.723-95.2,4.853" transform="translate(-52.998 -106.39)" fill="#ffda8e" />
			<path id="Path_3570" data-name="Path 3570" d="M211.139,285.933l55.752-.251,22.267-58.168a5.035,5.035,0,0,1,4.7-3.2l100.978-.454a2.624,2.624,0,0,1,2.515,3.532l-25.274,66.026-108.327.487-60.934.274a8.277,8.277,0,0,1,8.329-8.246" transform="translate(-73.077 -80.662)" fill="#fff" />
			<path id="Path_3571" data-name="Path 3571" d="M422.74,229.446s11.123-1.93,10.195,2.962-11.407,17.463-12.873,28.127-5.815,21.024-8.667,25.361-3.012,9.3-23.772,5.409-65.835,2.591-69.305.312-3.355-14.123,3.5-22.238,4-34.985,15.117-37.479,27.109,6.081,51.654,1.647,34.147-4.1,34.147-4.1" transform="translate(-113.889 -82.539)" fill="#0078ee" />
			<path id="Path_3572" data-name="Path 3572" d="M297.405,293.908a.48.48,0,0,1-.053-.443l25.414-66.39a5.544,5.544,0,0,1,5.141-3.509l100.977-.455a3.17,3.17,0,0,1,2.621,1.357,3.012,3.012,0,0,1,.343,2.825l-25.274,66.026a.48.48,0,0,1-.445.308l-108.327.487h-.022a.479.479,0,0,1-.374-.206m133.548-66.957a2.065,2.065,0,0,0-.236-1.938,2.2,2.2,0,0,0-1.829-.944l-100.978.454a4.581,4.581,0,0,0-4.251,2.893L298.5,293.154l107.3-.482Z" transform="translate(-107.132 -80.392)" fill="#31313a" />
			<path id="Path_3573" data-name="Path 3573" d="M202.521,329.212h.022l60.934-.274a.478.478,0,1,0,0-.957l-60.442.272a7.586,7.586,0,0,1,2.206-4.936,7.915,7.915,0,0,1,5.636-2.351l55.752-.251a.479.479,0,0,0,.477-.481.487.487,0,0,0-.48-.477l-55.753.251a8.874,8.874,0,0,0-6.312,2.635,8.537,8.537,0,0,0-2.494,6.093.479.479,0,0,0,.459.475" transform="translate(-72.808 -115.216)" fill="#31313a" />
			<path id="Path_3574" data-name="Path 3574" d="M404.606,279.31a4.032,4.032,0,0,1-.256-3.756,8,8,0,0,1,6.85-4.922,3.652,3.652,0,0,1,3.148,1.46,4.033,4.033,0,0,1,.257,3.756,8,8,0,0,1-6.851,4.922c-.081,0-.161,0-.239,0a3.586,3.586,0,0,1-2.909-1.455m6.6-7.721a6.974,6.974,0,0,0-5.959,4.3,3.064,3.064,0,0,0,.146,2.873,2.73,2.73,0,0,0,2.358,1.048,6.972,6.972,0,0,0,5.959-4.3,3.063,3.063,0,0,0-.146-2.873,2.663,2.663,0,0,0-2.165-1.046c-.063,0-.128,0-.193,0" transform="translate(-145.576 -97.515)" fill="#fff" />
			<path id="Path_3575" data-name="Path 3575" d="M370.375,219.108h.022l17.248-.078a.479.479,0,0,0,.477-.48.489.489,0,0,0-.481-.477l-17.248.077a.479.479,0,0,0-.018.957" transform="translate(-133.29 -78.577)" fill="#31313a" />
			<path id="Path_3576" data-name="Path 3576" d="M404.984,218.987h.022l3.573-.016a.479.479,0,0,0,.477-.481.488.488,0,0,0-.48-.477L405,218.03a.479.479,0,0,0-.018.957" transform="translate(-145.76 -78.556)" fill="#31313a" />
			<path id="Path_3577" data-name="Path 3577" d="M196.02,298.86c6.429,7.91,15.072,2.858,15.072,2.858-.614,4.038,2.472,10.633,6.347,7.813A4.7,4.7,0,0,0,219.073,307l-.017.322c3.855-.615,5.661-2.254,6.256-4.306l.023.013c2.631-.151,5.112-5,3.657-10.526,0,0,4.925,1.949,6.656-.942s-13.285-8.144-13.285-8.144l0,0c-.44-.32-.9-.635-1.39-.942-12.468-7.828-29.821.39-29.821.39Z" transform="translate(-68.878 -100.564)" fill="#ffbe9d" />
			<path id="Path_3578" data-name="Path 3578" d="M234.561,313.177a.269.269,0,0,0,.1,0c3.393-.541,5.529-1.92,6.35-4.1,2.067-5.49-4.939-14.032-5.239-14.393a.281.281,0,0,0-.433.359c.072.086,7.1,8.651,5.145,13.836-.744,1.975-2.733,3.234-5.912,3.741a.281.281,0,0,0-.01.554" transform="translate(-84.436 -106.146)" fill="#060633" />
			<path id="Path_3579" data-name="Path 3579" d="M248.168,295.54c1.668.326,4.087.388,5.249-1.554a1.265,1.265,0,0,0,.088-1.13c-1.1-3.051-13.014-7.248-13.52-7.425l-.186.532c3.38,1.183,12.336,4.76,13.177,7.086a.709.709,0,0,1-.042.648c-1.59,2.656-6.264.843-6.311.826l-.207.523a10.692,10.692,0,0,0,1.751.5" transform="translate(-86.405 -102.848)" fill="#060633" />
			<path id="Path_3580" data-name="Path 3580" d="M226.945,303.205a.287.287,0,0,0,.07,0c1.705-.1,3.314-1.961,4-4.636,1.206-4.7-.322-11.484-8.226-16.435-9.247-5.794-21.839-2.572-26.824-.917a.282.282,0,0,0,.177.535c4.91-1.63,17.305-4.8,26.348.859,7.647,4.791,9.136,11.313,7.979,15.819-.625,2.437-2.027,4.13-3.487,4.214a.282.282,0,0,0-.038.558" transform="translate(-70.541 -100.467)" fill="#060633" />
			<path id="Path_3581" data-name="Path 3581" d="M216.78,318.672a3.215,3.215,0,0,0,2.571-.683c3.986-2.9,1.346-12.806,1.232-13.227a.281.281,0,1,0-.543.148c.027.1,2.653,9.951-1.02,12.624a2.523,2.523,0,0,1-2.994.243c-1.925-1.171-3.34-4.955-2.909-7.785a.282.282,0,0,0-.44-.273c-.053.036-5.372,3.669-12.241-.113-2.875-1.58-3.866-7.379-3.875-7.438a.285.285,0,0,0-.324-.232.282.282,0,0,0-.232.324c.041.25,1.047,6.128,4.159,7.839a12.692,12.692,0,0,0,12.334.379c-.186,2.744,1.063,6.457,3.236,7.778a3.2,3.2,0,0,0,1.047.415" transform="translate(-70.624 -108.794)" fill="#060633" />
			<path id="Path_3582" data-name="Path 3582" d="M119.382,116.467s-29.24-.913-48.319,15.185-19.684,77.99,2.2,94.654,73.366,19,73.366,19,6.4-9,4.775-23.307c0,0-44.158-11.276-48.267-22.611s6.312-64.654,6.312-64.654Z" transform="translate(-20.465 -41.962)" fill="#bed9ea" />
			<path id="Path_3583" data-name="Path 3583" d="M158.675,114.5l4.094,1.531a8.1,8.1,0,0,0,10.393-4.734l5.9-15.762a8.1,8.1,0,0,0-4.734-10.393l-4.093-1.532a8.1,8.1,0,0,0-10.393,4.734l-5.9,15.763a8.1,8.1,0,0,0,4.734,10.393" transform="translate(-55.285 -29.942)" fill="#eb996e" />
		</g>
	</g>
	<g id="Group_2725" data-name="Group 2725" transform="translate(98.146 53.156)">
		<g id="Group_2724" data-name="Group 2724" clip-path="url(#clip-path-5)">
			<path id="Path_3584" data-name="Path 3584" d="M174.76,106.4a.375.375,0,0,0,.307-.425.36.36,0,0,0-.415-.306.376.376,0,0,0-.307.425.36.36,0,0,0,.415.306" transform="translate(-160.966 -91.23)" fill="#ffd786" />
			<path id="Path_3585" data-name="Path 3585" d="M172.8,103.948a.376.376,0,0,0,.307-.425.36.36,0,0,0-.415-.306.376.376,0,0,0-.307.425.36.36,0,0,0,.414.306" transform="translate(-160.261 -90.346)" fill="#ffd786" />
			<path id="Path_3586" data-name="Path 3586" d="M176.007,104.007a.375.375,0,0,0,.307-.425.36.36,0,0,0-.414-.306.376.376,0,0,0-.307.425.36.36,0,0,0,.415.306" transform="translate(-161.415 -90.367)" fill="#ffd786" />
			<path id="Path_3587" data-name="Path 3587" d="M170.819,107.049a.375.375,0,0,0,.307-.425.36.36,0,0,0-.415-.306.377.377,0,0,0-.307.425.36.36,0,0,0,.415.306" transform="translate(-159.546 -91.463)" fill="#ffd786" />
			<path id="Path_3588" data-name="Path 3588" d="M174.919,100.525a.375.375,0,0,0,.307-.425.36.36,0,0,0-.415-.306.375.375,0,0,0-.307.425.36.36,0,0,0,.415.306" transform="translate(-161.023 -89.112)" fill="#ffd786" />
			<path id="Path_3589" data-name="Path 3589" d="M169.6,103.888a.374.374,0,0,0,.307-.425.36.36,0,0,0-.414-.306.376.376,0,0,0-.307.425.36.36,0,0,0,.415.306" transform="translate(-159.106 -90.324)" fill="#ffd786" />
			<path id="Path_3590" data-name="Path 3590" d="M170.874,100.018a.375.375,0,0,0,.307-.425.36.36,0,0,0-.415-.306.375.375,0,0,0-.307.425.36.36,0,0,0,.414.306" transform="translate(-159.566 -88.93)" fill="#ffd786" />
			<path id="Path_3591" data-name="Path 3591" d="M177.27,97.8a.374.374,0,0,0,.307-.425.36.36,0,0,0-.414-.306.376.376,0,0,0-.307.425.36.36,0,0,0,.415.306" transform="translate(-161.87 -88.13)" fill="#ffd786" />
			<path id="Path_3592" data-name="Path 3592" d="M175.313,95.344a.375.375,0,0,0,.307-.425.36.36,0,0,0-.415-.306.376.376,0,0,0-.307.425.36.36,0,0,0,.414.306" transform="translate(-161.165 -87.245)" fill="#ffd786" />
			<path id="Path_3593" data-name="Path 3593" d="M178.518,95.4a.374.374,0,0,0,.307-.425.36.36,0,0,0-.415-.306.376.376,0,0,0-.307.425.36.36,0,0,0,.415.306" transform="translate(-162.32 -87.267)" fill="#ffd786" />
			<path id="Path_3594" data-name="Path 3594" d="M173.329,98.445a.374.374,0,0,0,.307-.425.36.36,0,0,0-.415-.306.376.376,0,0,0-.307.425.36.36,0,0,0,.415.306" transform="translate(-160.45 -88.363)" fill="#ffd786" />
			<path id="Path_3595" data-name="Path 3595" d="M177.429,91.921a.374.374,0,0,0,.307-.425.36.36,0,0,0-.415-.306.376.376,0,0,0-.307.425.36.36,0,0,0,.414.306" transform="translate(-161.928 -86.012)" fill="#ffd786" />
			<path id="Path_3596" data-name="Path 3596" d="M172.109,95.284a.375.375,0,0,0,.307-.425.36.36,0,0,0-.415-.306.376.376,0,0,0-.307.425.36.36,0,0,0,.415.306" transform="translate(-160.011 -87.224)" fill="#ffd786" />
			<path id="Path_3597" data-name="Path 3597" d="M173.384,91.414a.375.375,0,0,0,.307-.425.36.36,0,0,0-.415-.306.376.376,0,0,0-.307.425.36.36,0,0,0,.415.306" transform="translate(-160.47 -85.829)" fill="#ffd786" />
			<path id="Path_3598" data-name="Path 3598" d="M168.246,99.429a.374.374,0,0,0,.307-.425.36.36,0,0,0-.415-.306.375.375,0,0,0-.307.425.36.36,0,0,0,.415.306" transform="translate(-158.619 -88.717)" fill="#ffd786" />
			<path id="Path_3599" data-name="Path 3599" d="M166.29,96.975a.375.375,0,0,0,.307-.425.36.36,0,0,0-.415-.306.376.376,0,0,0-.307.425.36.36,0,0,0,.415.306" transform="translate(-157.914 -87.833)" fill="#ffd786" />
			<path id="Path_3600" data-name="Path 3600" d="M169.494,97.034a.374.374,0,0,0,.307-.425.36.36,0,0,0-.415-.306.376.376,0,0,0-.307.425.36.36,0,0,0,.415.306" transform="translate(-159.068 -87.854)" fill="#ffd786" />
			<path id="Path_3601" data-name="Path 3601" d="M164.305,100.076a.375.375,0,0,0,.307-.425.36.36,0,0,0-.414-.306.376.376,0,0,0-.307.425.36.36,0,0,0,.415.306" transform="translate(-157.199 -88.951)" fill="#ffd786" />
			<path id="Path_3602" data-name="Path 3602" d="M168.405,93.552a.376.376,0,0,0,.307-.425.36.36,0,0,0-.415-.306.376.376,0,0,0-.307.425.36.36,0,0,0,.415.306" transform="translate(-158.676 -86.6)" fill="#ffd786" />
			<path id="Path_3603" data-name="Path 3603" d="M163.555,93.178a.374.374,0,0,0,.307-.425.36.36,0,0,0-.414-.306.376.376,0,0,0-.307.425.36.36,0,0,0,.414.306" transform="translate(-156.928 -86.465)" fill="#ffd786" />
			<path id="Path_3604" data-name="Path 3604" d="M166.536,90.784a.376.376,0,0,0,.307-.425.36.36,0,0,0-.415-.306.375.375,0,0,0-.307.425.36.36,0,0,0,.414.306" transform="translate(-158.002 -85.602)" fill="#ffd786" />
			<path id="Path_3605" data-name="Path 3605" d="M166.468,109.083a.375.375,0,0,0,.307-.425.36.36,0,0,0-.415-.306.376.376,0,0,0-.307.425.36.36,0,0,0,.414.306" transform="translate(-157.978 -92.196)" fill="#ffd786" />
			<path id="Path_3606" data-name="Path 3606" d="M164.512,106.629a.375.375,0,0,0,.307-.425.36.36,0,0,0-.415-.306.375.375,0,0,0-.307.425.36.36,0,0,0,.414.306" transform="translate(-157.273 -91.312)" fill="#ffd786" />
			<path id="Path_3607" data-name="Path 3607" d="M167.716,106.688a.374.374,0,0,0,.307-.425.36.36,0,0,0-.415-.306.376.376,0,0,0-.307.425.36.36,0,0,0,.415.306" transform="translate(-158.428 -91.333)" fill="#ffd786" />
			<path id="Path_3608" data-name="Path 3608" d="M162.527,109.73a.374.374,0,0,0,.307-.425.36.36,0,0,0-.415-.306.376.376,0,0,0-.307.425.36.36,0,0,0,.415.306" transform="translate(-156.558 -92.429)" fill="#ffd786" />
			<path id="Path_3609" data-name="Path 3609" d="M166.627,103.206a.375.375,0,0,0,.307-.425.36.36,0,0,0-.415-.306.376.376,0,0,0-.307.425.36.36,0,0,0,.415.306" transform="translate(-158.035 -90.078)" fill="#ffd786" />
			<path id="Path_3610" data-name="Path 3610" d="M160.843,99.475a.375.375,0,0,0,.307-.425.36.36,0,0,0-.415-.306.375.375,0,0,0-.307.425.36.36,0,0,0,.414.306" transform="translate(-155.951 -88.734)" fill="#ffd786" />
			<path id="Path_3611" data-name="Path 3611" d="M162.583,102.7a.375.375,0,0,0,.307-.425.36.36,0,0,0-.415-.306.376.376,0,0,0-.307.425.36.36,0,0,0,.415.306" transform="translate(-156.578 -89.896)" fill="#ffd786" />
			<path id="Path_3612" data-name="Path 3612" d="M183.234,103.991a.376.376,0,0,0,.307-.425.36.36,0,0,0-.414-.306.375.375,0,0,0-.307.425.36.36,0,0,0,.415.306" transform="translate(-164.019 -90.361)" fill="#ffd786" />
			<path id="Path_3613" data-name="Path 3613" d="M181.277,101.537a.375.375,0,0,0,.307-.425.36.36,0,0,0-.415-.306.376.376,0,0,0-.307.425.36.36,0,0,0,.415.306" transform="translate(-163.314 -89.477)" fill="#ffd786" />
			<path id="Path_3614" data-name="Path 3614" d="M186.536,101.693a.374.374,0,0,0,.307-.425.36.36,0,0,0-.415-.306.376.376,0,0,0-.307.425.36.36,0,0,0,.414.306" transform="translate(-165.209 -89.533)" fill="#ffd786" />
			<path id="Path_3615" data-name="Path 3615" d="M179.293,104.638a.375.375,0,0,0,.307-.425.36.36,0,0,0-.415-.306.375.375,0,0,0-.307.425.36.36,0,0,0,.415.306" transform="translate(-162.599 -90.594)" fill="#ffd786" />
			<path id="Path_3616" data-name="Path 3616" d="M183.393,98.114a.375.375,0,0,0,.307-.425.36.36,0,0,0-.415-.306.375.375,0,0,0-.307.425.36.36,0,0,0,.415.306" transform="translate(-164.077 -88.244)" fill="#ffd786" />
			<path id="Path_3617" data-name="Path 3617" d="M178.073,101.477a.375.375,0,0,0,.307-.425.36.36,0,0,0-.415-.306.375.375,0,0,0-.307.425.36.36,0,0,0,.415.306" transform="translate(-162.16 -89.455)" fill="#ffd786" />
			<path id="Path_3618" data-name="Path 3618" d="M179.349,97.607a.374.374,0,0,0,.307-.425.36.36,0,0,0-.414-.306.376.376,0,0,0-.307.425.36.36,0,0,0,.415.306" transform="translate(-162.619 -88.061)" fill="#ffd786" />
			<path id="Path_3619" data-name="Path 3619" d="M172.659,88.161a.375.375,0,0,0,.307-.425.36.36,0,0,0-.414-.306.376.376,0,0,0-.307.425.36.36,0,0,0,.415.306" transform="translate(-160.209 -84.657)" fill="#ffd786" />
			<path id="Path_3620" data-name="Path 3620" d="M170.7,85.707a.375.375,0,0,0,.307-.425.36.36,0,0,0-.414-.306.375.375,0,0,0-.307.425.36.36,0,0,0,.415.306" transform="translate(-159.504 -83.773)" fill="#ffd786" />
			<path id="Path_3621" data-name="Path 3621" d="M173.907,85.766a.374.374,0,0,0,.307-.425.36.36,0,0,0-.415-.306.376.376,0,0,0-.307.425.36.36,0,0,0,.414.306" transform="translate(-160.659 -83.794)" fill="#ffd786" />
			<path id="Path_3622" data-name="Path 3622" d="M170.372,91.324a.374.374,0,0,0,.307-.425.36.36,0,0,0-.415-.306.376.376,0,0,0-.307.425.36.36,0,0,0,.415.306" transform="translate(-159.385 -85.797)" fill="#ffd786" />
			<path id="Path_3623" data-name="Path 3623" d="M176.875,84.694a.375.375,0,0,0,.307-.425.36.36,0,0,0-.415-.306.376.376,0,0,0-.307.425.36.36,0,0,0,.414.306" transform="translate(-161.728 -83.408)" fill="#ffd786" />
			<path id="Path_3624" data-name="Path 3624" d="M167.5,85.648a.375.375,0,0,0,.307-.425.36.36,0,0,0-.414-.306.375.375,0,0,0-.307.425.36.36,0,0,0,.415.306" transform="translate(-158.349 -83.752)" fill="#ffd786" />
			<path id="Path_3625" data-name="Path 3625" d="M168.774,81.778a.375.375,0,0,0,.307-.425.36.36,0,0,0-.415-.306.376.376,0,0,0-.307.425.36.36,0,0,0,.414.306" transform="translate(-158.809 -82.357)" fill="#ffd786" />
			<path id="Path_3626" data-name="Path 3626" d="M182.54,95.328a.374.374,0,0,0,.307-.425.36.36,0,0,0-.415-.306.376.376,0,0,0-.307.425.36.36,0,0,0,.415.306" transform="translate(-163.769 -87.24)" fill="#ffd786" />
			<path id="Path_3627" data-name="Path 3627" d="M182.782,90.022a.374.374,0,0,0,.307-.425.36.36,0,0,0-.414-.306.376.376,0,0,0-.307.425.36.36,0,0,0,.415.306" transform="translate(-163.856 -85.328)" fill="#ffd786" />
			<path id="Path_3628" data-name="Path 3628" d="M182.527,84.351a.374.374,0,0,0,.307-.425.36.36,0,0,0-.415-.306.376.376,0,0,0-.307.425.36.36,0,0,0,.415.306" transform="translate(-163.764 -83.284)" fill="#ffd786" />
			<path id="Path_3629" data-name="Path 3629" d="M180.8,93.123a.374.374,0,0,0,.307-.425.36.36,0,0,0-.415-.306.376.376,0,0,0-.307.425.36.36,0,0,0,.415.306" transform="translate(-163.141 -86.445)" fill="#ffd786" />
			<path id="Path_3630" data-name="Path 3630" d="M186.3,92.219a.375.375,0,0,0,.307-.425.36.36,0,0,0-.415-.306.376.376,0,0,0-.307.425.36.36,0,0,0,.414.306" transform="translate(-165.124 -86.119)" fill="#ffd786" />
			<path id="Path_3631" data-name="Path 3631" d="M179.578,89.962a.375.375,0,0,0,.307-.425.36.36,0,0,0-.415-.306.376.376,0,0,0-.307.425.36.36,0,0,0,.415.306" transform="translate(-162.702 -85.306)" fill="#ffd786" />
			<path id="Path_3632" data-name="Path 3632" d="M175.928,88.657a.375.375,0,0,0,.307-.425.36.36,0,0,0-.415-.306.375.375,0,0,0-.307.425.36.36,0,0,0,.415.306" transform="translate(-161.387 -84.836)" fill="#ffd786" />
			<path id="Path_3633" data-name="Path 3633" d="M182.37,112.91a.374.374,0,0,0,.307-.425.36.36,0,0,0-.414-.306.376.376,0,0,0-.307.425.36.36,0,0,0,.415.306" transform="translate(-163.708 -93.575)" fill="#ffd786" />
			<path id="Path_3634" data-name="Path 3634" d="M175.442,114.047a.375.375,0,0,0,.307-.425.36.36,0,0,0-.415-.306.376.376,0,0,0-.307.425.36.36,0,0,0,.414.306" transform="translate(-161.212 -93.985)" fill="#ffd786" />
			<path id="Path_3635" data-name="Path 3635" d="M181.4,107.652a.374.374,0,0,0,.307-.424.36.36,0,0,0-.415-.307.376.376,0,0,0-.307.425.36.36,0,0,0,.415.306" transform="translate(-163.359 -91.68)" fill="#ffd786" />
			<path id="Path_3636" data-name="Path 3636" d="M168.908,110.874a.375.375,0,0,0,.307-.425.36.36,0,0,0-.415-.306.376.376,0,0,0-.307.425.36.36,0,0,0,.414.306" transform="translate(-158.857 -92.841)" fill="#ffd786" />
			<path id="Path_3637" data-name="Path 3637" d="M177.557,110.625a.375.375,0,0,0,.307-.425.36.36,0,0,0-.415-.306.376.376,0,0,0-.307.425.36.36,0,0,0,.415.306" transform="translate(-161.974 -92.752)" fill="#ffd786" />
			<path id="Path_3638" data-name="Path 3638" d="M169.517,115.02a.375.375,0,0,0,.307-.425.36.36,0,0,0-.415-.306.376.376,0,0,0-.307.425.36.36,0,0,0,.415.306" transform="translate(-159.077 -94.335)" fill="#ffd786" />
			<path id="Path_3639" data-name="Path 3639" d="M173.513,110.118a.375.375,0,0,0,.307-.425.36.36,0,0,0-.415-.306.376.376,0,0,0-.307.425.36.36,0,0,0,.415.306" transform="translate(-160.517 -92.569)" fill="#ffd786" />
			<path id="Path_3640" data-name="Path 3640" d="M184.851,97.725a.371.371,0,1,0,.2.481.367.367,0,0,0-.2-.481" transform="translate(-164.571 -88.359)" fill="#ffd786" />
			<path id="Path_3641" data-name="Path 3641" d="M185.272,100.868a.371.371,0,1,0,.2.481.367.367,0,0,0-.2-.481" transform="translate(-164.722 -89.491)" fill="#ffd786" />
			<path id="Path_3642" data-name="Path 3642" d="M182.575,99.144a.371.371,0,1,0,.2.481.367.367,0,0,0-.2-.481" transform="translate(-163.751 -88.87)" fill="#ffd786" />
			<path id="Path_3643" data-name="Path 3643" d="M188.532,99.224a.371.371,0,1,0,.2.481.367.367,0,0,0-.2-.481" transform="translate(-165.897 -88.899)" fill="#ffd786" />
			<path id="Path_3644" data-name="Path 3644" d="M181.737,102.721a.371.371,0,1,0,.2.481.367.367,0,0,0-.2-.481" transform="translate(-163.449 -90.159)" fill="#ffd786" />
			<path id="Path_3645" data-name="Path 3645" d="M187.968,102.593a.371.371,0,1,0,.2.481.367.367,0,0,0-.2-.481" transform="translate(-165.694 -90.113)" fill="#ffd786" />
			<path id="Path_3646" data-name="Path 3646" d="M184.921,105.271a.371.371,0,1,0,.2.481.367.367,0,0,0-.2-.481" transform="translate(-164.596 -91.078)" fill="#ffd786" />
			<path id="Path_3647" data-name="Path 3647" d="M178.354,103.85a.371.371,0,1,0,.2.481.367.367,0,0,0-.2-.481" transform="translate(-162.23 -90.566)" fill="#ffd786" />
			<path id="Path_3648" data-name="Path 3648" d="M178.775,106.993a.371.371,0,1,0,.2.481.367.367,0,0,0-.2-.481" transform="translate(-162.381 -91.698)" fill="#ffd786" />
			<path id="Path_3649" data-name="Path 3649" d="M176.079,105.269a.371.371,0,1,0,.2.481.367.367,0,0,0-.2-.481" transform="translate(-161.41 -91.077)" fill="#ffd786" />
			<path id="Path_3650" data-name="Path 3650" d="M182.036,105.349a.371.371,0,1,0,.2.481.367.367,0,0,0-.2-.481" transform="translate(-163.556 -91.106)" fill="#ffd786" />
			<path id="Path_3651" data-name="Path 3651" d="M175.241,108.846a.371.371,0,1,0,.2.481.367.367,0,0,0-.2-.481" transform="translate(-161.108 -92.366)" fill="#ffd786" />
			<path id="Path_3652" data-name="Path 3652" d="M181.472,108.718a.371.371,0,1,0,.2.481.367.367,0,0,0-.2-.481" transform="translate(-163.353 -92.32)" fill="#ffd786" />
			<path id="Path_3653" data-name="Path 3653" d="M178.425,111.4a.371.371,0,1,0,.2.481.367.367,0,0,0-.2-.481" transform="translate(-162.255 -93.285)" fill="#ffd786" />
			<path id="Path_3654" data-name="Path 3654" d="M186.859,107.153a.371.371,0,1,0,.2.481.367.367,0,0,0-.2-.481" transform="translate(-165.294 -91.756)" fill="#ffd786" />
			<path id="Path_3655" data-name="Path 3655" d="M187.28,110.295a.371.371,0,1,0,.2.481.367.367,0,0,0-.2-.481" transform="translate(-165.446 -92.888)" fill="#ffd786" />
			<path id="Path_3656" data-name="Path 3656" d="M184.583,108.571a.371.371,0,1,0,.2.481.367.367,0,0,0-.2-.481" transform="translate(-164.474 -92.267)" fill="#ffd786" />
			<path id="Path_3657" data-name="Path 3657" d="M190.54,108.651a.371.371,0,1,0,.2.481.367.367,0,0,0-.2-.481" transform="translate(-166.621 -92.296)" fill="#ffd786" />
			<path id="Path_3658" data-name="Path 3658" d="M183.745,112.149a.371.371,0,1,0,.2.481.367.367,0,0,0-.2-.481" transform="translate(-164.172 -93.556)" fill="#ffd786" />
			<path id="Path_3659" data-name="Path 3659" d="M187.682,115.005a.371.371,0,1,0,.2.481.367.367,0,0,0-.2-.481" transform="translate(-165.591 -94.585)" fill="#ffd786" />
			<path id="Path_3660" data-name="Path 3660" d="M183.932,115.517a.371.371,0,1,0,.2.481.367.367,0,0,0-.2-.481" transform="translate(-164.24 -94.77)" fill="#ffd786" />
			<path id="Path_3661" data-name="Path 3661" d="M193.265,99.738a.371.371,0,1,0,.2.481.367.367,0,0,0-.2-.481" transform="translate(-167.602 -89.084)" fill="#ffd786" />
			<path id="Path_3662" data-name="Path 3662" d="M193.686,102.88a.371.371,0,1,0,.2.481.367.367,0,0,0-.2-.481" transform="translate(-167.754 -90.216)" fill="#ffd786" />
			<path id="Path_3663" data-name="Path 3663" d="M190.989,101.156a.372.372,0,1,0,.2.481.367.367,0,0,0-.2-.481" transform="translate(-166.782 -89.595)" fill="#ffd786" />
			<path id="Path_3664" data-name="Path 3664" d="M196.946,101.237a.371.371,0,1,0,.2.481.367.367,0,0,0-.2-.481" transform="translate(-168.929 -89.624)" fill="#ffd786" />
			<path id="Path_3665" data-name="Path 3665" d="M190.151,104.734a.371.371,0,1,0,.2.481.367.367,0,0,0-.2-.481" transform="translate(-166.48 -90.884)" fill="#ffd786" />
			<path id="Path_3666" data-name="Path 3666" d="M193.181,110.979a.371.371,0,1,0,.2.481.367.367,0,0,0-.2-.481" transform="translate(-167.572 -93.135)" fill="#ffd786" />
			<path id="Path_3667" data-name="Path 3667" d="M193.335,107.283a.371.371,0,1,0,.2.481.367.367,0,0,0-.2-.481" transform="translate(-167.628 -91.803)" fill="#ffd786" />
			<path id="Path_3668" data-name="Path 3668" d="M176.419,95.383a.371.371,0,1,0,.2.482.367.367,0,0,0-.2-.482" transform="translate(-161.532 -87.515)" fill="#ffd786" />
			<path id="Path_3669" data-name="Path 3669" d="M176.839,98.526a.371.371,0,1,0,.2.481.367.367,0,0,0-.2-.481" transform="translate(-161.684 -88.647)" fill="#ffd786" />
			<path id="Path_3670" data-name="Path 3670" d="M172.444,95.645a.371.371,0,1,0,.2.481.367.367,0,0,0-.2-.481" transform="translate(-160.1 -87.609)" fill="#ffd786" />
			<path id="Path_3671" data-name="Path 3671" d="M180.1,96.883a.371.371,0,1,0,.2.481.367.367,0,0,0-.2-.481" transform="translate(-162.859 -88.055)" fill="#ffd786" />
			<path id="Path_3672" data-name="Path 3672" d="M173.3,100.38a.371.371,0,1,0,.2.481.367.367,0,0,0-.2-.481" transform="translate(-160.41 -89.316)" fill="#ffd786" />
			<path id="Path_3673" data-name="Path 3673" d="M179.536,100.251a.371.371,0,1,0,.2.481.367.367,0,0,0-.2-.481" transform="translate(-162.656 -89.269)" fill="#ffd786" />
			<path id="Path_3674" data-name="Path 3674" d="M176.489,102.929a.371.371,0,1,0,.2.481.367.367,0,0,0-.2-.481" transform="translate(-161.558 -90.234)" fill="#ffd786" />
			<path id="Path_3675" data-name="Path 3675" d="M177.393,114.586a.371.371,0,1,0,.2.481.367.367,0,0,0-.2-.481" transform="translate(-161.883 -94.434)" fill="#ffd786" />
			<path id="Path_3676" data-name="Path 3676" d="M177.814,117.729a.371.371,0,1,0,.2.481.367.367,0,0,0-.2-.481" transform="translate(-162.035 -95.567)" fill="#ffd786" />
			<path id="Path_3677" data-name="Path 3677" d="M175.118,116a.371.371,0,1,0,.2.481.367.367,0,0,0-.2-.481" transform="translate(-161.064 -94.945)" fill="#ffd786" />
			<path id="Path_3678" data-name="Path 3678" d="M180.942,113.048a.371.371,0,1,0,.2.481.367.367,0,0,0-.2-.481" transform="translate(-163.162 -93.88)" fill="#ffd786" />
			<path id="Path_3679" data-name="Path 3679" d="M172.049,115.381a.371.371,0,1,0,.2.481.367.367,0,0,0-.2-.481" transform="translate(-159.958 -94.721)" fill="#ffd786" />
			<path id="Path_3680" data-name="Path 3680" d="M180.511,119.453a.371.371,0,1,0,.2.481.367.367,0,0,0-.2-.481" transform="translate(-163.007 -96.188)" fill="#ffd786" />
			<path id="Path_3681" data-name="Path 3681" d="M177.464,122.132a.371.371,0,1,0,.2.481.367.367,0,0,0-.2-.481" transform="translate(-161.909 -97.153)" fill="#ffd786" />
			<path id="Path_3682" data-name="Path 3682" d="M172.619,103.233a.371.371,0,1,0,.2.481.367.367,0,0,0-.2-.481" transform="translate(-160.163 -90.344)" fill="#ffd786" />
			<path id="Path_3683" data-name="Path 3683" d="M169.723,107.692a.371.371,0,1,0,.2.481.367.367,0,0,0-.2-.481" transform="translate(-159.12 -91.95)" fill="#ffd786" />
			<path id="Path_3684" data-name="Path 3684" d="M167.066,112.726a.371.371,0,1,0,.2.481.367.367,0,0,0-.2-.481" transform="translate(-158.162 -93.764)" fill="#ffd786" />
			<path id="Path_3685" data-name="Path 3685" d="M172.983,106.048a.371.371,0,1,0,.2.481.367.367,0,0,0-.2-.481" transform="translate(-160.294 -91.358)" fill="#ffd786" />
			<path id="Path_3686" data-name="Path 3686" d="M167.843,103.955a.371.371,0,1,0,.2.481.367.367,0,0,0-.2-.481" transform="translate(-158.442 -90.604)" fill="#ffd786" />
			<path id="Path_3687" data-name="Path 3687" d="M172.419,109.417a.371.371,0,1,0,.2.481.367.367,0,0,0-.2-.481" transform="translate(-160.091 -92.572)" fill="#ffd786" />
			<path id="Path_3688" data-name="Path 3688" d="M174.863,112.451a.371.371,0,1,0,.2.481.367.367,0,0,0-.2-.481" transform="translate(-160.972 -93.665)" fill="#ffd786" />
			<path id="Path_3689" data-name="Path 3689" d="M181.674,88.127a.371.371,0,1,0,.2.481.367.367,0,0,0-.2-.481" transform="translate(-163.426 -84.9)" fill="#ffd786" />
			<path id="Path_3690" data-name="Path 3690" d="M188.146,90.762a.371.371,0,1,0,.2.481.367.367,0,0,0-.2-.481" transform="translate(-165.758 -85.85)" fill="#ffd786" />
			<path id="Path_3691" data-name="Path 3691" d="M179.834,93.176a.371.371,0,1,0,.2.481.367.367,0,0,0-.2-.481" transform="translate(-162.763 -86.72)" fill="#ffd786" />
			<path id="Path_3692" data-name="Path 3692" d="M192.1,96.916a.371.371,0,1,0,.2.481.367.367,0,0,0-.2-.481" transform="translate(-167.181 -88.068)" fill="#ffd786" />
			<path id="Path_3693" data-name="Path 3693" d="M184.611,92.615a.371.371,0,1,0,.2.481.367.367,0,0,0-.2-.481" transform="translate(-164.484 -86.518)" fill="#ffd786" />
			<path id="Path_3694" data-name="Path 3694" d="M193.679,93.015a.371.371,0,1,0,.2.481.368.368,0,0,0-.2-.481" transform="translate(-167.752 -86.662)" fill="#ffd786" />
			<path id="Path_3695" data-name="Path 3695" d="M187.795,95.165a.372.372,0,1,0,.2.481.367.367,0,0,0-.2-.481" transform="translate(-165.631 -87.437)" fill="#ffd786" />
			<path id="Path_3696" data-name="Path 3696" d="M191.909,123.414a.377.377,0,0,0,.172-.5.359.359,0,0,0-.487-.168.376.376,0,0,0-.171.5.359.359,0,0,0,.486.168" transform="translate(-167.108 -97.372)" fill="#ffd786" />
			<path id="Path_3697" data-name="Path 3697" d="M189.321,121.66a.376.376,0,0,0,.172-.5.359.359,0,0,0-.487-.168.376.376,0,0,0-.171.5.358.358,0,0,0,.486.168" transform="translate(-166.175 -96.74)" fill="#ffd786" />
			<path id="Path_3698" data-name="Path 3698" d="M192.414,120.761a.376.376,0,0,0,.172-.5.359.359,0,0,0-.487-.168.376.376,0,0,0-.171.5.358.358,0,0,0,.486.168" transform="translate(-167.29 -96.416)" fill="#ffd786" />
			<path id="Path_3699" data-name="Path 3699" d="M188.313,125.2a.376.376,0,0,0,.172-.5.359.359,0,0,0-.487-.168.376.376,0,0,0-.171.5.358.358,0,0,0,.486.168" transform="translate(-165.812 -98.017)" fill="#ffd786" />
			<path id="Path_3700" data-name="Path 3700" d="M190.362,117.771a.376.376,0,0,0,.172-.5.359.359,0,0,0-.487-.168.376.376,0,0,0-.171.5.359.359,0,0,0,.486.168" transform="translate(-166.55 -95.338)" fill="#ffd786" />
			<path id="Path_3701" data-name="Path 3701" d="M186.229,122.558a.376.376,0,0,0,.172-.5.359.359,0,0,0-.487-.168.376.376,0,0,0-.171.5.359.359,0,0,0,.486.168" transform="translate(-165.061 -97.063)" fill="#ffd786" />
			<path id="Path_3702" data-name="Path 3702" d="M186.334,118.493a.376.376,0,0,0,.172-.5.359.359,0,0,0-.487-.168.376.376,0,0,0-.171.5.359.359,0,0,0,.486.168" transform="translate(-165.099 -95.599)" fill="#ffd786" />
			<path id="Path_3703" data-name="Path 3703" d="M191.83,114.473a.376.376,0,0,0,.172-.5.359.359,0,0,0-.487-.168.377.377,0,0,0-.171.5.358.358,0,0,0,.486.168" transform="translate(-167.079 -94.15)" fill="#ffd786" />
			<path id="Path_3704" data-name="Path 3704" d="M189.242,112.72a.376.376,0,0,0,.172-.5.359.359,0,0,0-.487-.168.376.376,0,0,0-.171.5.358.358,0,0,0,.486.168" transform="translate(-166.147 -93.518)" fill="#ffd786" />
			<path id="Path_3705" data-name="Path 3705" d="M192.335,111.821a.376.376,0,0,0,.172-.5.359.359,0,0,0-.487-.168.376.376,0,0,0-.171.5.359.359,0,0,0,.486.168" transform="translate(-167.261 -93.195)" fill="#ffd786" />
			<path id="Path_3706" data-name="Path 3706" d="M188.234,116.264a.376.376,0,0,0,.172-.5.359.359,0,0,0-.487-.168.377.377,0,0,0-.172.5.359.359,0,0,0,.487.168" transform="translate(-165.783 -94.795)" fill="#ffd786" />
			<path id="Path_3707" data-name="Path 3707" d="M190.283,108.831a.377.377,0,0,0,.172-.5.359.359,0,0,0-.487-.168.376.376,0,0,0-.172.5.359.359,0,0,0,.487.168" transform="translate(-166.521 -92.117)" fill="#ffd786" />
			<path id="Path_3708" data-name="Path 3708" d="M186.149,113.618a.376.376,0,0,0,.172-.5.359.359,0,0,0-.487-.168.376.376,0,0,0-.171.5.358.358,0,0,0,.486.168" transform="translate(-165.032 -93.842)" fill="#ffd786" />
			<path id="Path_3709" data-name="Path 3709" d="M186.255,109.553a.376.376,0,0,0,.172-.5.359.359,0,0,0-.487-.168.376.376,0,0,0-.171.5.358.358,0,0,0,.486.168" transform="translate(-165.07 -92.377)" fill="#ffd786" />
			<path id="Path_3710" data-name="Path 3710" d="M183.641,118.715a.376.376,0,0,0,.172-.5.359.359,0,0,0-.487-.168.377.377,0,0,0-.171.5.358.358,0,0,0,.486.168" transform="translate(-164.128 -95.679)" fill="#ffd786" />
			<path id="Path_3711" data-name="Path 3711" d="M181.054,116.962a.376.376,0,0,0,.172-.5.36.36,0,0,0-.487-.168.377.377,0,0,0-.171.5.359.359,0,0,0,.487.168" transform="translate(-163.196 -95.047)" fill="#ffd786" />
			<path id="Path_3712" data-name="Path 3712" d="M184.146,116.063a.376.376,0,0,0,.172-.5.359.359,0,0,0-.487-.168.377.377,0,0,0-.172.5.36.36,0,0,0,.487.168" transform="translate(-164.31 -94.723)" fill="#ffd786" />
			<path id="Path_3713" data-name="Path 3713" d="M180.046,120.506a.376.376,0,0,0,.172-.5.359.359,0,0,0-.487-.168.376.376,0,0,0-.171.5.359.359,0,0,0,.486.168" transform="translate(-162.833 -96.324)" fill="#ffd786" />
			<path id="Path_3714" data-name="Path 3714" d="M182.094,113.072a.376.376,0,0,0,.172-.5.359.359,0,0,0-.487-.168.377.377,0,0,0-.171.5.358.358,0,0,0,.486.168" transform="translate(-163.571 -93.645)" fill="#ffd786" />
			<path id="Path_3715" data-name="Path 3715" d="M177.331,114.161a.376.376,0,0,0,.172-.5.359.359,0,0,0-.487-.168.376.376,0,0,0-.171.5.358.358,0,0,0,.486.168" transform="translate(-161.855 -94.038)" fill="#ffd786" />
			<path id="Path_3716" data-name="Path 3716" d="M179.5,110.993a.376.376,0,0,0,.172-.5.359.359,0,0,0-.487-.168.376.376,0,0,0-.171.5.358.358,0,0,0,.486.168" transform="translate(-162.636 -92.896)" fill="#ffd786" />
			<path id="Path_3717" data-name="Path 3717" d="M184.727,128.437a.376.376,0,0,0,.172-.5.359.359,0,0,0-.487-.168.376.376,0,0,0-.171.5.358.358,0,0,0,.486.168" transform="translate(-164.52 -99.182)" fill="#ffd786" />
			<path id="Path_3718" data-name="Path 3718" d="M182.139,126.684a.376.376,0,0,0,.172-.5.359.359,0,0,0-.487-.168.376.376,0,0,0-.171.5.358.358,0,0,0,.486.168" transform="translate(-163.587 -98.55)" fill="#ffd786" />
			<path id="Path_3719" data-name="Path 3719" d="M185.232,125.785a.376.376,0,0,0,.172-.5.359.359,0,0,0-.487-.168.376.376,0,0,0-.171.5.358.358,0,0,0,.486.168" transform="translate(-164.702 -98.226)" fill="#ffd786" />
			<path id="Path_3720" data-name="Path 3720" d="M181.131,130.228a.376.376,0,0,0,.172-.5.359.359,0,0,0-.487-.168.376.376,0,0,0-.171.5.358.358,0,0,0,.486.168" transform="translate(-163.224 -99.827)" fill="#ffd786" />
			<path id="Path_3721" data-name="Path 3721" d="M183.179,122.794a.376.376,0,0,0,.172-.5.359.359,0,0,0-.487-.168.376.376,0,0,0-.171.5.359.359,0,0,0,.486.168" transform="translate(-163.962 -97.148)" fill="#ffd786" />
			<path id="Path_3722" data-name="Path 3722" d="M176.549,120.965a.376.376,0,0,0,.172-.5.359.359,0,0,0-.487-.168.376.376,0,0,0-.171.5.358.358,0,0,0,.486.168" transform="translate(-161.573 -96.489)" fill="#ffd786" />
			<path id="Path_3723" data-name="Path 3723" d="M179.151,123.517a.376.376,0,0,0,.172-.5.359.359,0,0,0-.487-.168.376.376,0,0,0-.171.5.358.358,0,0,0,.486.168" transform="translate(-162.511 -97.409)" fill="#ffd786" />
			<path id="Path_3724" data-name="Path 3724" d="M199.345,118.593a.376.376,0,0,0,.172-.5.359.359,0,0,0-.487-.168.376.376,0,0,0-.171.5.358.358,0,0,0,.486.168" transform="translate(-169.787 -95.635)" fill="#ffd786" />
			<path id="Path_3725" data-name="Path 3725" d="M196.757,116.839a.376.376,0,0,0,.172-.5.359.359,0,0,0-.487-.168.376.376,0,0,0-.171.5.359.359,0,0,0,.486.168" transform="translate(-168.854 -95.003)" fill="#ffd786" />
			<path id="Path_3726" data-name="Path 3726" d="M201.85,115.421a.376.376,0,0,0,.172-.5.359.359,0,0,0-.487-.168.376.376,0,0,0-.171.5.358.358,0,0,0,.486.168" transform="translate(-170.69 -94.492)" fill="#ffd786" />
			<path id="Path_3727" data-name="Path 3727" d="M195.75,120.383a.377.377,0,0,0,.172-.5.36.36,0,0,0-.487-.168.377.377,0,0,0-.171.5.359.359,0,0,0,.487.168" transform="translate(-168.491 -96.28)" fill="#ffd786" />
			<path id="Path_3728" data-name="Path 3728" d="M197.8,112.95a.376.376,0,0,0,.172-.5.359.359,0,0,0-.487-.168.376.376,0,0,0-.171.5.358.358,0,0,0,.486.168" transform="translate(-169.23 -93.601)" fill="#ffd786" />
			<path id="Path_3729" data-name="Path 3729" d="M193.665,117.738a.376.376,0,0,0,.172-.5.359.359,0,0,0-.487-.168.376.376,0,0,0-.171.5.359.359,0,0,0,.486.168" transform="translate(-167.74 -95.327)" fill="#ffd786" />
			<path id="Path_3730" data-name="Path 3730" d="M193.77,113.673a.376.376,0,0,0,.172-.5.359.359,0,0,0-.487-.168.376.376,0,0,0-.171.5.359.359,0,0,0,.486.168" transform="translate(-167.778 -93.862)" fill="#ffd786" />
			<path id="Path_3731" data-name="Path 3731" d="M184.618,106.672a.376.376,0,0,0,.172-.5.359.359,0,0,0-.487-.168.376.376,0,0,0-.171.5.359.359,0,0,0,.486.168" transform="translate(-164.481 -91.339)" fill="#ffd786" />
			<path id="Path_3732" data-name="Path 3732" d="M182.03,104.918a.376.376,0,0,0,.172-.5.359.359,0,0,0-.487-.168.376.376,0,0,0-.171.5.359.359,0,0,0,.486.168" transform="translate(-163.548 -90.707)" fill="#ffd786" />
			<path id="Path_3733" data-name="Path 3733" d="M185.123,104.02a.376.376,0,0,0,.172-.5.359.359,0,0,0-.487-.168.376.376,0,0,0-.171.5.358.358,0,0,0,.486.168" transform="translate(-164.662 -90.384)" fill="#ffd786" />
			<path id="Path_3734" data-name="Path 3734" d="M183.337,110.365a.376.376,0,0,0,.172-.5.359.359,0,0,0-.487-.168.376.376,0,0,0-.171.5.359.359,0,0,0,.486.168" transform="translate(-164.019 -92.67)" fill="#ffd786" />
			<path id="Path_3735" data-name="Path 3735" d="M187.661,102.114a.376.376,0,0,0,.172-.5.359.359,0,0,0-.487-.168.377.377,0,0,0-.172.5.36.36,0,0,0,.487.168" transform="translate(-165.577 -89.697)" fill="#ffd786" />
			<path id="Path_3736" data-name="Path 3736" d="M178.937,105.817a.377.377,0,0,0,.172-.5.359.359,0,0,0-.487-.168.376.376,0,0,0-.171.5.359.359,0,0,0,.486.168" transform="translate(-162.434 -91.031)" fill="#ffd786" />
			<path id="Path_3737" data-name="Path 3737" d="M179.043,101.752a.376.376,0,0,0,.171-.5.359.359,0,0,0-.487-.168.377.377,0,0,0-.171.5.359.359,0,0,0,.487.168" transform="translate(-162.471 -89.566)" fill="#ffd786" />
			<path id="Path_3738" data-name="Path 3738" d="M196.173,110.551a.376.376,0,0,0,.172-.5.359.359,0,0,0-.487-.168.376.376,0,0,0-.171.5.359.359,0,0,0,.486.168" transform="translate(-168.644 -92.737)" fill="#ffd786" />
			<path id="Path_3739" data-name="Path 3739" d="M194.871,105.427a.376.376,0,0,0,.172-.5.359.359,0,0,0-.487-.168.376.376,0,0,0-.171.5.358.358,0,0,0,.486.168" transform="translate(-168.175 -90.891)" fill="#ffd786" />
			<path id="Path_3740" data-name="Path 3740" d="M192.987,100.1a.376.376,0,0,0,.172-.5.359.359,0,0,0-.487-.168.376.376,0,0,0-.171.5.359.359,0,0,0,.486.168" transform="translate(-167.496 -88.973)" fill="#ffd786" />
			<path id="Path_3741" data-name="Path 3741" d="M193.864,108.971a.376.376,0,0,0,.172-.5.359.359,0,0,0-.487-.168.376.376,0,0,0-.171.5.358.358,0,0,0,.486.168" transform="translate(-167.812 -92.168)" fill="#ffd786" />
			<path id="Path_3742" data-name="Path 3742" d="M198.884,106.471a.376.376,0,0,0,.172-.5.359.359,0,0,0-.487-.168.376.376,0,0,0-.171.5.359.359,0,0,0,.486.168" transform="translate(-169.621 -91.267)" fill="#ffd786" />
			<path id="Path_3743" data-name="Path 3743" d="M191.779,106.325a.376.376,0,0,0,.172-.5.359.359,0,0,0-.487-.168.376.376,0,0,0-.171.5.358.358,0,0,0,.486.168" transform="translate(-167.061 -91.214)" fill="#ffd786" />
			<path id="Path_3744" data-name="Path 3744" d="M187.9,106.17a.376.376,0,0,0,.172-.5.359.359,0,0,0-.487-.168.377.377,0,0,0-.172.5.359.359,0,0,0,.487.168" transform="translate(-165.662 -91.158)" fill="#ffd786" />
			<path id="Path_3745" data-name="Path 3745" d="M201.095,127.342a.376.376,0,0,0,.172-.5.359.359,0,0,0-.487-.168.376.376,0,0,0-.171.5.358.358,0,0,0,.486.168" transform="translate(-170.418 -98.787)" fill="#ffd786" />
			<path id="Path_3746" data-name="Path 3746" d="M194.774,130.49a.376.376,0,0,0,.172-.5.359.359,0,0,0-.487-.168.376.376,0,0,0-.171.5.359.359,0,0,0,.486.168" transform="translate(-168.14 -99.921)" fill="#ffd786" />
			<path id="Path_3747" data-name="Path 3747" d="M198.645,122.625a.376.376,0,0,0,.172-.5.359.359,0,0,0-.487-.168.376.376,0,0,0-.171.5.358.358,0,0,0,.486.168" transform="translate(-169.535 -97.088)" fill="#ffd786" />
			<path id="Path_3748" data-name="Path 3748" d="M187.586,129.415a.376.376,0,0,0,.172-.5.359.359,0,0,0-.487-.168.377.377,0,0,0-.172.5.359.359,0,0,0,.487.168" transform="translate(-165.55 -99.534)" fill="#ffd786" />
			<path id="Path_3749" data-name="Path 3749" d="M195.815,126.6a.376.376,0,0,0,.172-.5.359.359,0,0,0-.487-.168.377.377,0,0,0-.172.5.359.359,0,0,0,.487.168" transform="translate(-168.515 -98.52)" fill="#ffd786" />
			<path id="Path_3750" data-name="Path 3750" d="M189.37,133.181a.376.376,0,0,0,.172-.5.359.359,0,0,0-.487-.168.376.376,0,0,0-.171.5.358.358,0,0,0,.486.168" transform="translate(-166.193 -100.891)" fill="#ffd786" />
			<path id="Path_3751" data-name="Path 3751" d="M191.787,127.323a.376.376,0,0,0,.172-.5.359.359,0,0,0-.487-.168.376.376,0,0,0-.171.5.358.358,0,0,0,.486.168" transform="translate(-167.064 -98.78)" fill="#ffd786" />
		</g>
	</g>
	<g id="Group_2727" data-name="Group 2727">
		<g id="Group_2726" data-name="Group 2726" clip-path="url(#clip-path-2)">
			<path id="Path_3753" data-name="Path 3753" d="M152.61,106.151a.6.6,0,0,0,.77-.36l6.553-17.516A7.484,7.484,0,0,1,169.51,83.8l4.243,1.587a7.485,7.485,0,0,1,4.286,9.664L172.2,110.661a.6.6,0,1,0,1.116.417l5.841-15.612a8.688,8.688,0,0,0-4.976-11.217l-4.243-1.588a8.688,8.688,0,0,0-11.118,5.2l-6.553,17.516a.6.6,0,0,0,.345.777" transform="translate(-54.85 -29.592)" fill="#31313a" />
			<path id="Path_3754" data-name="Path 3754" d="M160.7,54.086c1.436,16.529,12.2,28.934,24.05,27.706S204.57,63.319,203.6,49.639c-1.172-16.554-12.2-28.934-24.049-27.706S159.266,37.557,160.7,54.086" transform="translate(-57.847 -7.873)" fill="#ffbe9d" />
			<path id="Path_3755" data-name="Path 3755" d="M170.944,77.524c-6.152-5.146-10.328-14.013-11.171-23.719-1.462-16.835,7.237-31.557,19.392-32.816,4.833-.5,9.619,1.131,13.837,4.719,6.126,5.21,10.186,14.01,10.86,23.538,1,14.137-7.252,31.548-19.392,32.806a16.584,16.584,0,0,1-7.616-1.01,20.535,20.535,0,0,1-5.909-3.518m8.326-55.33c-11.5,1.192-19.713,15.318-18.309,31.489.816,9.394,4.834,17.956,10.748,22.9a16.845,16.845,0,0,0,12.655,4.262c5.288-.548,10.175-4.487,13.761-11.091a38.863,38.863,0,0,0,4.546-20.408c-.652-9.212-4.557-17.7-10.444-22.708a19.729,19.729,0,0,0-5.8-3.493,15.582,15.582,0,0,0-7.159-.954" transform="translate(-57.512 -7.531)" fill="#31313a" />
			<path id="Path_3756" data-name="Path 3756" d="M195.1,69.389a.479.479,0,0,0,.39-.18.49.49,0,0,0-.06-.682A5.066,5.066,0,0,0,189.138,68a.5.5,0,0,0-.193.661.514.514,0,0,0,.647.187,7.991,7.991,0,0,1,5.229.431.467.467,0,0,0,.281.107" transform="translate(-68.061 -24.195)" fill="#31313a" />
			<path id="Path_3757" data-name="Path 3757" d="M217.923,71.876a.479.479,0,0,0,.39-.18.49.49,0,0,0-.06-.682,5.066,5.066,0,0,0-6.294-.525.5.5,0,0,0-.193.661.514.514,0,0,0,.647.187,7.986,7.986,0,0,1,5.229.431.467.467,0,0,0,.281.107" transform="translate(-76.284 -25.092)" fill="#31313a" />
			<path id="Path_3758" data-name="Path 3758" d="M190.37,75.967a1.881,1.881,0,0,0,.707,2.481c.777.274,1.719-.391,2.1-1.486a1.88,1.88,0,0,0-.707-2.481c-.776-.275-1.719.391-2.1,1.486" transform="translate(-68.536 -26.815)" fill="#31313a" />
			<path id="Path_3759" data-name="Path 3759" d="M211.8,79.481a1.881,1.881,0,0,0,.707,2.481c.777.274,1.719-.391,2.1-1.486A1.88,1.88,0,0,0,213.908,78c-.777-.275-1.719.391-2.1,1.486" transform="translate(-76.259 -28.081)" fill="#31313a" />
			<path id="Path_3760" data-name="Path 3760" d="M201.3,92.375a.386.386,0,0,0,.067.019,4.906,4.906,0,0,0,4.116-1.057.437.437,0,0,0,.031-.611.42.42,0,0,0-.6-.024,4.045,4.045,0,0,1-3.374.842.432.432,0,0,0-.5.342.427.427,0,0,0,.264.487" transform="translate(-72.437 -32.641)" fill="#31313a" />
			<path id="Path_3761" data-name="Path 3761" d="M204.7,27.246A59.92,59.92,0,0,1,157.67,48.177c-30.575-.708,14.219-37.707,14.219-37.707Z" transform="translate(-52.964 -3.773)" fill="#253137" />
			<path id="Path_3762" data-name="Path 3762" d="M156.82,73.05c2.252,2.6,5.6,3.322,7.48,1.624s1.152-5.6-.674-7.773c-2.209-2.632-5.6-3.322-7.48-1.624s-1.578,5.178.674,7.773" transform="translate(-55.818 -23.187)" fill="#fff" />
			<path id="Path_3763" data-name="Path 3763" d="M198.638,99.777a11.02,11.02,0,0,1-6.9-2.766.508.508,0,0,1,.7-.732c.19.181,4.7,4.412,10.051,1.447a.508.508,0,0,1,.493.889,8.865,8.865,0,0,1-4.35,1.162" transform="translate(-69.033 -34.641)" fill="#31313b" />
			<path id="Path_3764" data-name="Path 3764" d="M149.046,108.993s-12.59,3.014-15.673,6.1,0,51.378,0,51.378l8.22,2.911-3.768,5.258s10.716,18.718,21.885,27.282c0,0-13.317-68.024-10.665-92.925" transform="translate(-47.564 -39.273)" fill="#83aac6" />
		</g>
	</g>
</svg>