<svg width="117" height="58" viewBox="0 0 117 58" fill="none" xmlns="http://www.w3.org/2000/svg">
    <path d="M32.3125 57.4688L51.9062 3.28125H56.5938V0.75H40.6562V3.28125H48.1562L34 42.9375L17.9688 3.28125H25.375V0.75H0.0625V3.28125H4.84375L23.4062 49.7812C24.9688 53.7812 26.1875 56.0938 27.0625 56.7188C27.8125 57.2188 28.9062 57.4688 30.3438 57.4688H32.3125ZM58.4688 0.75V3.28125H65.9688V54.4688H58.4688V57H86.4062C95.0938 57 102.25 54.375 107.875 49.125C113.375 43.9375 116.125 37.25 116.125 29.0625C116.125 18.625 112.188 10.8438 104.312 5.71875C99.125 2.40625 93.0625 0.75 86.125 0.75H58.4688ZM86.4062 3.28125C92.9688 3.28125 97.3438 6.5 99.5312 12.9375C100.781 16.875 101.406 22.0938 101.406 28.5938C101.406 41.5938 98.8125 49.625 93.625 52.6875C91.625 53.875 89.1562 54.4688 86.2188 54.4688H79.0938V3.28125H86.4062Z" fill="white" fill-opacity="0.8" />
</svg>